<?xml version="1.0" encoding="UTF-8" standalone="no"?>
<!-- Created with Inkscape (http://www.inkscape.org/) -->

<svg
   xmlns:dc="http://purl.org/dc/elements/1.1/"
   xmlns:cc="http://creativecommons.org/ns#"
   xmlns:rdf="http://www.w3.org/1999/02/22-rdf-syntax-ns#"
   xmlns:svg="http://www.w3.org/2000/svg"
   xmlns="http://www.w3.org/2000/svg"
   xmlns:sodipodi="http://sodipodi.sourceforge.net/DTD/sodipodi-0.dtd"
   xmlns:inkscape="http://www.inkscape.org/namespaces/inkscape"
   width="70.555557mm"
   height="70.555557mm"
   viewBox="0 0 250.00001 250"
   id="svg2"
   version="1.1"
   inkscape:version="0.91 r13725"
   sodipodi:docname="icon_bus_stop.svg">
  <defs
     id="defs4" />
  <sodipodi:namedview
     id="base"
     pagecolor="#ffffff"
     bordercolor="#666666"
     borderopacity="1.0"
     inkscape:pageopacity="0.0"
     inkscape:pageshadow="2"
     inkscape:zoom="0.78775159"
     inkscape:cx="-62.896423"
     inkscape:cy="127.72271"
     inkscape:document-units="px"
     inkscape:current-layer="layer1"
     showgrid="false"
     showguides="true"
     inkscape:guide-bbox="true"
     fit-margin-top="0"
     fit-margin-left="0"
     fit-margin-right="0"
     fit-margin-bottom="0"
     inkscape:window-width="1920"
     inkscape:window-height="1016"
     inkscape:window-x="0"
     inkscape:window-y="27"
     inkscape:window-maximized="1" />
  <metadata
     id="metadata7">
    <rdf:RDF>
      <cc:Work
         rdf:about="">
        <dc:format>image/svg+xml</dc:format>
        <dc:type
           rdf:resource="http://purl.org/dc/dcmitype/StillImage" />
        <dc:title></dc:title>
      </cc:Work>
    </rdf:RDF>
  </metadata>
  <g
     inkscape:label="Vrstva 1"
     inkscape:groupmode="layer"
     id="layer1"
     transform="translate(0,-802.3622)">
    <path
       style="color:#000000;clip-rule:nonzero;display:inline;overflow:visible;visibility:visible;opacity:1;isolation:auto;mix-blend-mode:normal;color-interpolation:sRGB;color-interpolation-filters:linearRGB;solid-color:#000000;solid-opacity:1;fill:#ffffff;fill-opacity:1;fill-rule:nonzero;stroke:none;stroke-width:0.48862886;stroke-linecap:butt;stroke-linejoin:round;stroke-miterlimit:4;stroke-dasharray:none;stroke-dashoffset:0;stroke-opacity:1;color-rendering:auto;image-rendering:auto;shape-rendering:auto;text-rendering:auto;enable-background:accumulate"
       d="M 125.00102,802.3622 C 55.964645,802.36131 -6.7932471e-4,858.32664 0,927.36325 c 4.8048236e-4,69.03579 55.965465,124.99985 125.00102,124.99895 69.03476,-2e-4 124.99851,-55.96396 124.99899,-124.99895 6.8e-4,-69.03581 -55.96341,-125.00082 -124.99899,-125.00105 z"
       id="path4201-2"
       inkscape:connector-curvature="0"
       sodipodi:nodetypes="sssss" />
    <path
       style="color:#000000;clip-rule:nonzero;display:inline;overflow:visible;visibility:visible;opacity:1;isolation:auto;mix-blend-mode:normal;color-interpolation:sRGB;color-interpolation-filters:linearRGB;solid-color:#000000;solid-opacity:1;fill:#2c9ebb;fill-opacity:1;fill-rule:nonzero;stroke:#000000;stroke-width:1.00000006;stroke-linecap:butt;stroke-linejoin:round;stroke-miterlimit:4;stroke-dasharray:none;stroke-dashoffset:0;stroke-opacity:1;color-rendering:auto;image-rendering:auto;shape-rendering:auto;text-rendering:auto;enable-background:accumulate"
       d="M 125.00101,802.3622 A 124.99939,124.99981 0 0 0 0,927.36324 124.99939,124.99981 0 0 0 125.00101,1052.3622 124.99939,124.99981 0 0 0 250,927.36324 124.99939,124.99981 0 0 0 125.00101,802.3622 Z m 3.06552,45.54042 c 47.56974,0 55.60628,13.52484 57.03207,15.32825 1.4258,1.8034 1.94478,3.73592 1.94478,3.73592 l 7.64678,49.33612 0,71.86723 -13.55931,0 0,16.39626 c 0,0 -1.01506,5.2821 -9.44719,5.2821 -8.43215,0 -9.25073,-5.5531 -9.25073,-5.5531 l 0,-16.12526 -74.789686,0 0.258642,16.05356 c 0,0 -0.808847,5.6248 -9.607601,5.6248 -8.798754,0 -9.713857,-5.4654 -9.713857,-5.4654 l 0,-16.57758 -10.265211,0 0,-71.77558 6.96511,-50.27857 c 0,0 0.364785,-1.23308 2.255534,-3.16408 1.890749,-1.931 12.960917,-14.68467 60.530669,-14.68467 z M 78.52285,874.2633 c 0,0 -1.296547,0.14447 -2.67457,2.17978 -0.915277,1.35186 -1.313228,3.14815 -1.313228,3.14815 l -5.31505,41.09118 c 0,0 -3.49e-4,1.03063 1.231025,2.96283 1.231364,1.93222 2.786841,1.54618 2.786841,1.54618 l 105.250492,-0.64357 c 0,0 1.03756,2.8e-4 2.33374,-1.41666 1.29617,-1.41696 0.7759,-2.96284 0.7759,-2.96284 l -5.70201,-41.2207 c 0,0 -0.38854,-1.41776 -1.42549,-3.09235 -1.03694,-1.67459 -2.20341,-1.54617 -2.20341,-1.54617 l -93.74424,-0.0458 z m -0.04414,74.92172 a 9.1653674,9.1085401 0 0 0 -9.166516,9.10969 9.1653674,9.1085401 0 0 0 9.166516,9.10768 9.1653674,9.1085401 0 0 0 9.164503,-9.10768 9.1653674,9.1085401 0 0 0 -9.164503,-9.10969 z m 94.07304,0 a 9.1653674,9.1085401 0 0 0 -9.16651,9.10969 9.1653674,9.1085401 0 0 0 9.16651,9.10768 9.1653674,9.1085401 0 0 0 9.16452,-9.10768 9.1653674,9.1085401 0 0 0 -9.16452,-9.10969 z"
       id="path4201"
       inkscape:connector-curvature="0" />
    <g
       id="g4265"
       transform="translate(-199.98723,668.46656)">
      <g
         transform="translate(-96,0)"
         id="icomoon-ignore" />
    </g>
    <g
       id="g4285"
       transform="translate(-200.30459,673.5443)">
      <g
         transform="translate(-96,0)"
         id="icomoon-ignore-3" />
      <path
         style="fill:#ff0000;fill-opacity:0"
         sodipodi:nodetypes="sscsszzzzz"
         inkscape:connector-curvature="0"
         id="path4161"
         d="M 160,0 C 71.634,0 0,71.634 0,160 0,320 160,512 160,512 160,512 320,320 320,160 320,71.634 248.365,0 160,0 Z m 0,304 C 88.282594,304 16,233.25147 16,160 16,86.748532 85.21447,16 160,16 c 74.78553,0 144,70.748532 144,144 0,73.25147 -72.28259,144 -144,144 z" />
    </g>
  </g>
</svg>
