<?xml version="1.0" encoding="utf-8"?><!DOCTYPE svg  PUBLIC '-//W3C//DTD SVG 1.1//EN'  'http://www.w3.org/Graphics/SVG/1.1/DTD/svg11.dtd'><svg enable_background="new 0 0 1000 574" height="574px" pretty_print="False" style="stroke-linejoin: round; stroke:#000; fill: none;" version="1.1" viewBox="0 0 1000 574" width="1000px" xmlns="http://www.w3.org/2000/svg" xmlns:xlink="http://www.w3.org/1999/xlink"><defs><style type="text/css"><![CDATA[path { fill-rule: evenodd; }]]></style></defs><metadata><views><view h="574.344627582" padding="0" w="1000"><proj flip="auto" id="mercator" lon0="14.4465109138"/><bbox h="67.73" w="118.13" x="211.02" y="-1039.67"/></view></views></metadata><g class="" fill="white" id="districts" stroke-width="2px"><path d="M360.9699,204.4118L357.2395,205.5337L351.3415,205.9692L350.9300,208.1842L344.4525,209.7760L341.4855,210.9793L341.3469,211.9928L335.8871,211.2493L335.0890,214.2664L335.6888,218.2862L329.7633,218.4647L329.0661,215.3881L326.9167,215.1475L324.9368,218.2742L320.4061,218.6203L315.6639,221.4877L319.7841,221.5117L321.5841,224.8917L324.1703,227.9025L321.0582,228.4112L319.0160,231.2267L322.6878,233.3191L323.0975,236.9062L326.6946,239.3416L329.1621,240.3681L327.5190,242.9490L329.4123,247.4773L330.6272,246.8612L332.4673,248.2649L330.8315,251.0851L333.5688,250.9998L330.4155,254.5854L331.8801,255.8161L339.6787,256.4607L340.9376,258.0840L340.7267,254.8847L341.9235,251.8054L343.6237,252.8768L348.0431,250.9469L350.6507,251.6432L352.7126,248.6199L354.2719,248.1632L357.0674,245.5884L359.8070,245.5278L359.6508,243.5274L361.4534,242.2426L364.2728,242.1884L366.6059,242.9920L367.4420,241.8423L371.2983,242.8392L372.7187,244.9737L376.9983,246.1057L378.3137,242.9220L380.0845,243.2646L381.1593,240.9309L379.2767,237.8821L380.6311,235.8680L379.1021,233.8397L377.4073,234.9316L376.9567,232.3158L378.8153,230.7817L386.0995,227.3622L386.4693,224.1134L384.0499,222.8224L384.4190,221.9960L379.3821,219.4898L379.6878,216.7732L370.2973,214.2269L369.1597,211.5638L370.6295,209.5829L365.5466,210.4297L365.1623,207.7047L361.2704,207.8066L360.9699,204.4118Z " data-nazevkr="Hlavní město Praha" data-ob01="1169106.0" data-ob11="1268796.0" data-ob91="1214174.0" data-vymera="49615.1911"/><path d="M354.2223,128.4586L354.0879,128.4185L351.6921,127.4468L352.3828,129.7755L349.7358,130.2364L351.2640,133.8275L352.3514,138.6418L350.2559,141.0800L349.3612,140.5354L347.7746,141.9749L344.9349,140.4495L344.7160,144.6462L343.1380,145.8354L344.1625,146.9947L339.2797,145.8257L338.2294,144.4174L336.5033,146.8104L337.8429,150.1567L336.9404,151.8907L338.0291,154.4491L336.7190,163.4164L334.0902,163.7691L327.8630,163.1711L327.2778,164.1158L322.9626,163.2413L319.1392,168.8334L314.3009,166.6583L311.8470,167.4946L311.6694,165.9707L309.4925,165.4460L309.2699,167.9545L303.3713,168.7622L299.0048,167.8561L293.7050,167.8027L291.0246,166.5438L284.8607,164.8559L283.6049,165.1952L280.4243,167.9481L280.0068,169.9849L281.1286,171.6469L281.0361,173.9232L279.8020,175.4258L275.5345,175.2694L275.9882,177.8490L273.9576,179.0502L271.1557,181.7977L268.4392,181.8453L264.2583,183.6621L262.3543,188.8416L258.3442,188.8871L256.9314,185.0270L255.4944,184.4425L253.6039,185.2002L248.3723,191.5338L246.1729,190.9131L244.4626,193.3561L241.3859,193.0664L237.5422,194.0413L235.0784,192.9508L233.7692,190.1173L228.1970,197.0106L225.8586,196.4549L226.8208,198.3235L221.5595,201.8261L215.2972,200.9982L213.9850,201.4790L211.0198,204.1734L211.0937,205.0994L208.0439,207.3518L207.1060,206.7199L207.2233,213.8896L207.6441,215.5134L205.2249,215.6362L204.3510,214.5738L204.2706,218.3430L203.2652,220.6990L197.8232,220.3783L194.9575,222.7552L195.0094,224.3264L194.9858,224.3604L195.0509,224.3924L198.3436,230.9404L196.0222,230.6149L195.4927,233.4469L194.3201,234.4053L194.0469,236.6520L197.4169,237.0267L199.0958,238.5738L211.4613,235.5947L210.7466,237.7399L209.0801,238.6315L210.0475,240.2914L212.2036,241.8164L217.1737,243.4581L216.6657,243.7348L219.5178,246.1543L226.5998,246.5404L227.8887,244.9654L231.5030,244.5256L233.4217,245.5903L234.1628,248.9478L237.3848,250.2296L238.1173,252.5372L239.4134,252.9999L245.1115,252.9001L245.9549,254.7299L245.7207,257.5099L250.7338,258.4664L253.3739,261.0390L255.2992,261.7217L257.8707,261.4922L256.1970,264.8304L257.0776,269.9917L257.0468,275.0341L254.2428,275.3358L254.9115,278.4685L253.9075,279.8218L253.7429,282.5065L252.6473,284.5527L253.9932,285.8074L254.3030,287.8927L251.7340,291.8487L252.0504,297.8693L250.3063,299.9294L252.8755,298.6497L255.3283,300.5930L249.1944,305.4425L247.6935,308.3157L245.4264,307.7967L243.4174,306.1228L237.4799,309.5754L236.3085,312.5909L234.8389,313.3747L234.4345,315.2465L235.7117,317.9539L238.2210,316.8176L242.3609,318.4086L237.7707,320.7167L236.4606,320.1922L236.5183,322.4779L237.6942,322.7849L240.5478,325.6910L237.9623,327.1135L235.3462,325.8687L235.7306,327.3514L240.0372,328.0762L238.0231,330.3618L238.3998,331.5734L241.7113,329.8830L246.1768,332.8807L245.2019,334.0500L245.8404,337.2649L244.9547,338.8553L243.9002,345.0919L244.9109,345.5464L243.8852,348.1771L245.0730,347.1363L247.6292,348.4191L247.4669,349.9841L248.8904,350.8666L247.9232,355.8807L247.9207,355.8990L247.9222,355.9738L250.3662,357.0306L254.2741,355.5269L254.2233,354.7946L257.0439,354.3639L257.9614,356.4315L260.7844,355.9594L262.9471,353.2344L264.9963,353.9069L264.5682,354.9059L267.2143,356.4009L266.8740,357.1179L272.4490,358.7614L273.1115,356.3506L278.8656,356.4239L279.7834,353.6226L283.0967,353.9299L282.2679,352.1806L284.5407,350.2419L283.9137,347.4139L286.0826,347.9834L287.6796,346.4334L292.4737,346.3333L292.0935,351.2675L293.4126,352.3775L297.4926,352.6088L297.4134,351.4399L299.5033,352.3788L307.0794,351.1579L313.2004,351.8570L315.5687,345.7679L317.6893,344.6799L323.6516,344.6481L327.5131,347.8424L331.4602,349.9573L330.4555,352.7160L332.7704,351.7929L336.4146,352.3686L339.4971,349.3203L342.3689,351.1713L343.4669,350.7039L342.5262,348.7741L342.7517,346.6333L345.6942,349.3358L347.8008,347.9406L349.7797,351.2808L352.8450,349.6530L357.8609,349.0593L357.8079,350.4063L360.2090,351.4920L361.1256,350.7003L363.7234,351.4805L369.6918,350.5917L367.2527,353.4056L368.2019,354.6108L372.1410,353.9079L376.0191,354.9400L377.7284,358.2804L384.8055,349.0078L387.5716,349.5519L391.0956,347.9762L389.3613,343.6807L389.0738,340.8845L390.7014,337.4484L391.5789,337.2414L394.3429,333.9364L395.4952,331.5325L397.4403,335.2786L401.7400,335.7603L404.4875,339.3056L407.6197,341.2389L409.1024,339.0550L411.3668,339.0796L411.6688,341.0441L413.9432,346.9975L416.2085,349.1890L419.9195,347.8565L419.9307,347.8542L419.9070,347.8121L422.0575,346.1799L421.3153,344.7289L421.0491,340.9271L426.2383,341.1824L428.4187,340.5478L425.7452,337.3421L429.5812,334.5224L433.0920,337.0372L435.8743,336.2137L437.1704,336.7489L442.2070,336.5958L446.4914,334.6204L452.5601,337.2452L452.5416,338.2763L454.5899,337.7558L455.5344,333.2991L456.2408,334.2185L462.6123,333.5160L466.0315,330.8379L465.9587,327.9904L466.9044,326.9971L464.5635,321.4742L460.2805,321.7890L459.2541,320.1887L457.4309,321.0195L456.2354,316.1718L456.7959,311.2176L458.0825,310.9365L463.5501,303.9142L463.3586,300.8512L466.1607,299.4127L468.2201,301.5831L470.5552,300.9086L471.9315,298.7461L479.2276,296.4432L481.0925,297.7156L483.0809,295.4765L483.7714,295.9060L484.6162,293.3630L486.9724,290.7357L492.1462,292.5972L493.7044,289.2599L491.1822,286.1782L492.2990,283.2793L495.9880,280.5699L499.8315,280.9788L499.7429,279.1303L502.4710,278.9434L503.2663,276.7510L503.2748,276.7670L503.2750,276.7511L504.4070,271.4506L503.3134,268.5280L506.1791,267.9879L506.4536,265.1774L508.9323,261.5879L506.2433,257.9981L508.2544,256.9340L508.4158,254.5960L505.1303,251.8327L504.0257,252.3535L499.3789,249.0838L499.8714,246.2522L499.1055,243.3549L498.5312,244.6134L497.5786,242.5474L494.6200,242.9945L492.1082,242.4277L492.7539,240.8794L490.3570,239.9735L487.9573,240.2027L485.0540,237.7833L485.4545,234.1939L488.4262,234.3176L485.5372,231.7556L490.6674,230.4883L489.9518,226.4623L491.8506,223.8920L488.8260,223.0102L490.1135,220.7496L492.6741,221.9524L494.3268,221.4189L494.4076,219.6770L494.4689,219.7021L494.4715,219.6948L494.8906,215.3991L490.5915,213.0022L486.3589,211.5536L482.2592,211.2480L485.1222,209.1431L483.2997,207.5011L488.5739,199.2789L487.6379,194.8423L484.6490,192.7882L486.5637,186.0700L485.8462,183.1154L485.7742,179.6306L482.9386,178.2222L482.2057,176.3659L478.3275,177.9348L476.9938,177.7086L475.2403,180.1854L470.8182,177.6057L470.3668,178.4539L468.6223,177.1807L464.9130,178.7404L461.4998,177.0988L460.7628,174.1335L462.0868,171.7235L459.3192,170.1170L456.7332,169.4118L457.7447,166.6755L454.8695,165.7553L452.5972,166.8246L449.9991,165.6947L447.9175,162.6229L449.1619,161.1744L445.3372,158.3072L447.4929,155.3432L451.2122,155.6522L450.1571,153.7222L453.9023,146.4706L451.4130,141.7073L449.7505,141.8264L450.6739,135.0167L449.3223,134.0065L446.6963,128.6060L449.3143,127.0361L451.5004,124.3802L451.6359,124.3594L451.6231,124.3192L447.9323,122.3898L444.3603,121.5809L443.8295,116.8839L441.0394,115.5790L439.3209,113.0736L435.9699,114.3784L435.5575,111.5372L432.0500,108.1724L430.6279,105.4839L427.9293,106.1288L426.2575,105.3603L424.8798,107.7742L421.9216,106.6500L419.9060,104.8172L419.8468,103.0041L417.1108,102.0343L417.7462,104.8427L414.5353,105.9301L416.4350,109.6248L414.1613,111.2629L408.2069,112.8354L407.5072,114.5450L408.7113,116.8031L404.4301,120.7102L402.5571,119.1904L393.1609,116.4334L394.1946,122.1568L393.3000,125.8441L389.5505,125.3477L388.5671,129.8700L383.9796,131.5464L384.4699,133.1124L382.4750,132.8108L378.1064,133.1786L378.1627,134.2564L375.5283,132.8633L375.1758,134.2573L373.2552,134.2078L372.4767,136.1098L368.2887,134.1378L367.4708,130.7142L367.9566,127.2109L363.7437,128.5146L361.5790,130.2477L359.7330,127.1261L357.3259,127.8611L356.3752,131.4814L354.2179,128.4648L354.2223,128.4586Z M360.9699,204.4118L361.2704,207.8066L365.1623,207.7047L365.5466,210.4297L370.6295,209.5829L369.1597,211.5638L370.2973,214.2269L379.6878,216.7732L379.3821,219.4898L384.4190,221.9960L384.0499,222.8224L386.4693,224.1134L386.0995,227.3622L378.8153,230.7817L376.9567,232.3158L377.4073,234.9316L379.1021,233.8397L380.6311,235.8680L379.2767,237.8821L381.1593,240.9309L380.0845,243.2646L378.3137,242.9220L376.9983,246.1057L372.7187,244.9737L371.2983,242.8392L367.4420,241.8423L366.6059,242.9920L364.2728,242.1884L361.4534,242.2426L359.6508,243.5274L359.8070,245.5278L357.0674,245.5884L354.2719,248.1632L352.7126,248.6199L350.6507,251.6432L348.0431,250.9469L343.6237,252.8768L341.9235,251.8054L340.7267,254.8847L340.9376,258.0840L339.6787,256.4607L331.8801,255.8161L330.4155,254.5854L333.5688,250.9998L330.8315,251.0851L332.4673,248.2649L330.6272,246.8612L329.4123,247.4773L327.5190,242.9490L329.1621,240.3681L326.6946,239.3416L323.0975,236.9062L322.6878,233.3191L319.0160,231.2267L321.0582,228.4112L324.1703,227.9025L321.5841,224.8917L319.7841,221.5117L315.6639,221.4877L320.4061,218.6203L324.9368,218.2742L326.9167,215.1475L329.0661,215.3881L329.7633,218.4647L335.6888,218.2862L335.0890,214.2664L335.8871,211.2493L341.3469,211.9928L341.4855,210.9793L344.4525,209.7760L350.9300,208.1842L351.3415,205.9692L357.2395,205.5337L360.9699,204.4118Z " data-nazevkr="Středočeský kraj" data-ob01="1122473.0" data-ob11="1289211.0" data-ob91="1112882.0" data-vymera="1101547.1693"/><path d="M509.9517,492.7680L510.9762,489.3122L512.2183,489.4850L516.5370,484.0022L516.4873,483.9646L516.4773,483.9645L514.4820,481.6073L514.6114,479.6259L508.2938,477.8887L506.7788,476.8972L505.1772,472.4093L504.2435,473.3407L501.9428,473.0161L502.4960,470.9410L504.3197,470.3300L507.8409,465.8761L507.7472,463.2179L510.4484,462.4966L511.7283,458.2783L511.4647,455.1036L514.2400,456.0992L514.8339,455.3719L518.1179,454.8403L515.7959,449.9318L516.0077,448.2831L512.5764,445.3528L513.4708,443.0454L510.0913,441.8292L504.8080,444.0613L504.1061,445.2101L493.4241,442.8388L493.0286,444.3255L489.7441,442.3857L486.2211,441.2123L485.8435,439.8188L482.1035,437.6121L479.8573,434.2007L481.4068,427.8413L480.8407,427.1268L480.3187,422.8561L477.1968,422.6069L471.1842,424.6742L466.4151,422.0812L462.2026,420.8221L460.5467,420.9442L458.4346,418.9584L452.4253,422.5435L450.5377,422.0604L449.5128,418.5822L448.2038,416.2010L443.6350,416.7110L441.1683,415.4534L444.8279,415.9193L445.2456,411.1566L438.4456,409.8652L435.1919,406.5498L434.8481,405.4592L429.4769,408.8322L428.6542,410.0471L421.6436,403.1071L418.8340,401.9238L419.6287,400.6697L416.0583,396.5800L418.9815,392.6328L418.7731,390.0238L413.4758,387.2416L415.4959,379.0186L417.5750,376.1602L416.6618,374.7116L417.2043,371.6868L418.6030,369.9437L419.6047,366.3045L417.9311,364.7839L420.1303,362.6873L419.1842,358.9315L415.4440,355.5976L417.5323,353.9643L419.2747,354.0709L421.4323,352.4432L419.9201,347.8896L419.9307,347.8542L419.9195,347.8565L416.2085,349.1890L413.9432,346.9975L411.6688,341.0441L411.3668,339.0796L409.1024,339.0550L407.6197,341.2389L404.4875,339.3056L401.7400,335.7603L397.4403,335.2786L395.4952,331.5325L394.3429,333.9364L391.5789,337.2414L390.7014,337.4484L389.0738,340.8845L389.3613,343.6807L391.0956,347.9762L387.5716,349.5519L384.8055,349.0078L377.7284,358.2804L376.0191,354.9400L372.1410,353.9079L368.2019,354.6108L367.2527,353.4056L369.6918,350.5917L363.7234,351.4805L361.1256,350.7003L360.2090,351.4920L357.8079,350.4063L357.8609,349.0593L352.8450,349.6530L349.7797,351.2808L347.8008,347.9406L345.6942,349.3358L342.7517,346.6333L342.5262,348.7741L343.4669,350.7039L342.3689,351.1713L339.4971,349.3203L336.4146,352.3686L332.7704,351.7929L330.4555,352.7160L331.4602,349.9573L327.5131,347.8424L323.6516,344.6481L317.6893,344.6799L315.5687,345.7679L313.2004,351.8570L307.0794,351.1579L299.5033,352.3788L297.4134,351.4399L297.4926,352.6088L293.4126,352.3775L292.0935,351.2675L292.4737,346.3333L287.6796,346.4334L286.0826,347.9834L283.9137,347.4139L284.5407,350.2419L282.2679,352.1806L283.0967,353.9299L279.7834,353.6226L278.8656,356.4239L273.1115,356.3506L272.4490,358.7614L266.8740,357.1179L267.2143,356.4009L264.5682,354.9059L264.9963,353.9069L262.9471,353.2344L260.7844,355.9594L257.9614,356.4315L257.0439,354.3639L254.2233,354.7946L254.2741,355.5269L250.3662,357.0306L247.9222,355.9738L247.9207,355.8990L247.8055,355.8757L245.2795,362.0774L248.1323,362.8982L247.3383,367.3998L247.6771,369.8253L250.6302,373.8014L247.5677,376.7006L246.8314,380.9014L247.9947,384.5905L249.3656,385.9488L249.0160,387.2212L250.7072,387.4958L251.4945,390.1170L248.6659,396.0480L244.3426,400.5167L241.5930,402.4392L241.9060,406.0050L243.4053,406.1971L241.4473,409.4981L237.9890,409.3458L239.3495,413.6157L241.4689,414.0461L241.5615,417.3958L239.1773,416.7152L239.7206,418.6253L237.1570,419.3422L237.4692,422.1867L240.9400,427.7693L237.0248,429.9412L235.5257,435.0608L232.2758,437.3601L228.2778,441.2160L223.3815,439.7922L222.5962,442.7328L222.8878,446.5477L220.6153,449.1578L223.2535,452.1142L224.1303,458.5128L223.1302,460.2804L220.7945,461.7337L219.8031,461.1134L215.1001,468.0172L215.5971,470.5815L214.2759,474.1123L215.7086,476.5866L216.2349,479.3103L216.6753,479.3649L221.2450,479.0861L222.0415,482.5433L224.9624,484.4989L227.8068,483.7042L226.7897,485.7852L229.0839,488.7270L229.3589,490.8155L231.4867,495.4914L235.5809,499.0630L239.3576,498.9186L243.2877,497.5361L245.5584,501.8121L245.6391,503.9389L248.3869,509.8802L251.8812,510.1707L253.4948,515.1690L254.4445,519.5168L253.6324,521.0968L255.8770,523.0066L260.1200,523.6740L261.1054,523.3141L275.9376,536.0174L283.5302,537.8204L284.4376,539.6285L288.1631,544.4059L290.7038,544.7397L291.3252,547.2494L290.0338,549.8741L287.5572,549.5036L284.5340,552.5715L286.8042,555.7535L289.3913,555.8564L290.3974,560.4038L291.7172,560.1268L292.9500,561.7731L298.8945,563.9498L301.5504,562.2146L306.5671,563.4417L309.5120,562.9890L314.2658,564.5658L322.5180,565.7560L326.0629,568.7212L330.3002,569.5737L331.1583,572.1691L334.4799,568.5862L339.9128,567.4473L339.4293,563.2401L344.2814,563.4879L345.1339,564.2062L347.7750,560.9184L348.5839,558.6784L348.0799,552.8486L349.9833,551.8798L355.5958,555.7461L355.4846,556.5876L362.7436,558.3367L365.3292,560.8482L365.5911,559.8341L371.3166,555.8497L373.1344,556.0395L374.5334,560.3049L375.6376,560.7032L377.6018,559.4408L378.6712,560.3870L380.3159,565.6268L385.9305,565.4635L388.6077,560.3881L387.7840,557.7124L388.9698,553.0231L387.8602,549.0474L390.9471,539.6794L396.8286,536.3630L399.5107,532.7526L401.6411,531.6601L400.7132,529.2488L402.1026,524.6354L401.8940,521.5375L406.8397,520.5955L407.2343,521.5139L410.3003,521.4180L413.4884,523.5717L414.6333,523.1117L419.9065,524.3985L423.2813,526.0574L426.1402,524.0190L425.5336,520.3863L423.0908,518.1316L425.4504,511.5528L426.0941,504.7827L428.8949,493.7228L427.1979,487.4164L426.7704,476.4387L428.8670,469.5797L432.9834,467.4274L439.1078,468.7638L439.4345,472.0713L444.8769,473.2883L446.5975,472.1677L450.3544,472.5639L453.0010,473.5523L453.1475,475.5193L454.9937,480.5268L453.7925,482.1566L453.6008,485.1293L456.0293,483.8068L457.8648,484.8473L460.8910,481.6968L463.0112,481.0474L466.5337,481.4840L468.5004,482.3697L471.2760,477.2138L471.0829,473.2456L475.0470,477.0079L477.7507,477.1099L478.8915,475.6220L481.9901,475.6173L487.1650,478.1768L487.8900,479.7723L492.7855,482.9080L496.3960,483.3259L497.2986,484.2496L499.0479,482.8721L499.7709,484.0950L503.5357,485.9369L505.8654,491.4207L509.9378,492.7641L509.9517,492.7680Z " data-nazevkr="Jihočeský kraj" data-ob01="625267.0" data-ob11="628336.0" data-ob91="622889.0" data-vymera="1005635.423"/><path d="M179.4985,222.1141L179.4928,222.1185L176.5315,222.4262L177.4501,223.4577L176.6032,227.4997L178.8458,227.8152L177.9891,231.2676L172.9102,233.0561L172.0995,234.4744L168.5812,235.2085L170.0916,236.7280L170.6703,239.4769L169.0086,242.3845L169.1759,245.8603L165.3577,244.9358L162.2134,241.4683L156.5599,239.1238L152.6189,239.7715L149.2801,236.8736L146.7052,240.7571L144.8356,241.4016L145.1026,242.8314L142.9668,242.6247L136.2592,247.3396L135.3173,247.3530L133.2050,250.3238L128.5855,252.3190L129.6973,253.3152L129.9274,257.9538L124.2824,262.6520L122.6344,262.1920L120.5647,260.3976L112.7932,262.2474L110.6607,260.2845L107.1953,258.8097L104.2608,259.1409L101.5893,260.9220L97.2952,260.3187L96.2217,261.8678L92.1926,262.9879L92.1900,265.0176L87.5505,265.8983L88.2963,269.3222L86.3900,268.7550L85.6210,265.4061L84.6184,264.5888L79.7597,264.6246L77.7479,267.9525L75.4500,269.0957L73.3070,267.1018L70.9528,267.4564L68.7286,266.6391L68.7722,266.9491L64.4377,272.0408L63.9902,274.9291L60.9795,278.1781L60.7589,282.0462L58.7783,281.1364L56.3675,291.3308L57.5100,292.7931L54.5534,295.0594L47.2037,299.2227L46.5833,301.2728L48.4689,306.2095L50.2965,306.5953L52.0540,311.4212L54.9561,313.0866L59.0559,316.3132L64.6076,317.9061L65.3351,321.8114L64.7001,322.4114L64.0765,326.5582L65.4005,327.1815L66.3054,330.3907L65.2181,331.2621L70.2073,331.8651L70.0479,333.8745L72.2135,345.6232L75.2467,349.5815L74.3059,350.3100L80.1621,352.8959L81.3220,351.7955L82.4654,360.4925L81.0519,364.3428L82.8014,366.0971L84.5466,370.3330L84.4563,373.9738L92.2249,376.4315L92.9288,378.5440L94.9680,379.2625L99.2490,382.9254L99.3087,387.3573L102.8908,390.9871L102.2956,392.6659L107.0928,395.0040L111.8177,394.8068L118.3004,397.0689L117.2803,393.2887L118.7519,392.9252L123.0900,394.5577L124.3082,394.2315L127.8561,394.9290L136.6156,403.1933L139.2705,410.6997L141.2074,412.3452L143.4168,413.1264L143.5552,415.1422L147.4916,417.1189L147.6876,420.2204L151.8272,422.8613L151.1944,426.2766L154.5574,428.2347L159.0080,432.7643L160.7453,433.8954L160.1629,439.3938L165.6728,444.5777L169.8021,446.4418L176.9981,445.0735L185.8477,452.1993L190.2470,458.5449L192.8466,459.8177L192.8744,462.3966L195.2882,470.7159L194.4851,474.9958L197.8414,478.2178L208.5878,485.2263L209.9088,484.6929L209.7487,480.1036L213.0455,477.8684L216.0124,479.3998L216.2349,479.3103L215.7086,476.5866L214.2759,474.1123L215.5971,470.5815L215.1001,468.0172L219.8031,461.1134L220.7945,461.7337L223.1302,460.2804L224.1303,458.5128L223.2535,452.1142L220.6153,449.1578L222.8878,446.5477L222.5962,442.7328L223.3815,439.7922L228.2778,441.2160L232.2758,437.3601L235.5257,435.0608L237.0248,429.9412L240.9400,427.7693L237.4692,422.1867L237.1570,419.3422L239.7206,418.6253L239.1773,416.7152L241.5615,417.3958L241.4689,414.0461L239.3495,413.6157L237.9890,409.3458L241.4473,409.4981L243.4053,406.1971L241.9060,406.0050L241.5930,402.4392L244.3426,400.5167L248.6659,396.0480L251.4945,390.1170L250.7072,387.4958L249.0160,387.2212L249.3656,385.9488L247.9947,384.5905L246.8314,380.9014L247.5677,376.7006L250.6302,373.8014L247.6771,369.8253L247.3383,367.3998L248.1323,362.8982L245.2795,362.0774L247.8055,355.8757L247.9207,355.8990L247.9232,355.8807L248.8904,350.8666L247.4669,349.9841L247.6292,348.4191L245.0730,347.1363L243.8852,348.1771L244.9109,345.5464L243.9002,345.0919L244.9547,338.8553L245.8404,337.2649L245.2019,334.0500L246.1768,332.8807L241.7113,329.8830L238.3998,331.5734L238.0231,330.3618L240.0372,328.0762L235.7306,327.3514L235.3462,325.8687L237.9623,327.1135L240.5478,325.6910L237.6942,322.7849L236.5183,322.4779L236.4606,320.1922L237.7707,320.7167L242.3609,318.4086L238.2210,316.8176L235.7117,317.9539L234.4345,315.2465L234.8389,313.3747L236.3085,312.5909L237.4799,309.5754L243.4174,306.1228L245.4264,307.7967L247.6935,308.3157L249.1944,305.4425L255.3283,300.5930L252.8755,298.6497L250.3063,299.9294L252.0504,297.8693L251.7340,291.8487L254.3030,287.8927L253.9932,285.8074L252.6473,284.5527L253.7429,282.5065L253.9075,279.8218L254.9115,278.4685L254.2428,275.3358L257.0468,275.0341L257.0776,269.9917L256.1970,264.8304L257.8707,261.4922L255.2992,261.7217L253.3739,261.0390L250.7338,258.4664L245.7207,257.5099L245.9549,254.7299L245.1115,252.9001L239.4134,252.9999L238.1173,252.5372L237.3848,250.2296L234.1628,248.9478L233.4217,245.5903L231.5030,244.5256L227.8887,244.9654L226.5998,246.5404L219.5178,246.1543L216.6657,243.7348L217.1737,243.4581L212.2036,241.8164L210.0475,240.2914L209.0801,238.6315L210.7466,237.7399L211.4613,235.5947L199.0958,238.5738L197.4169,237.0267L194.0469,236.6520L194.3201,234.4053L195.4927,233.4469L196.0222,230.6149L198.3436,230.9404L195.0509,224.3924L194.9858,224.3604L194.9273,224.3231L192.7279,226.4684L189.4893,226.6856L189.6963,224.4587L187.0653,221.7095L185.6880,222.2053L184.2055,225.0433L182.2029,221.7563L179.5083,222.1419L179.4985,222.1141Z " data-nazevkr="Plzeňský kraj" data-ob01="550688.0" data-ob11="570401.0" data-ob91="558307.0" data-vymera="756090.6258"/><path d="M68.7286,266.6391L70.9528,267.4564L73.3070,267.1018L75.4500,269.0957L77.7479,267.9525L79.7597,264.6246L84.6184,264.5888L85.6210,265.4061L86.3900,268.7550L88.2963,269.3222L87.5505,265.8983L92.1900,265.0176L92.1926,262.9879L96.2217,261.8678L97.2952,260.3187L101.5893,260.9220L104.2608,259.1409L107.1953,258.8097L110.6607,260.2845L112.7932,262.2474L120.5647,260.3976L122.6344,262.1920L124.2824,262.6520L129.9274,257.9538L129.6973,253.3152L128.5855,252.3190L133.2050,250.3238L135.3173,247.3530L136.2592,247.3396L142.9668,242.6247L145.1026,242.8314L144.8356,241.4016L146.7052,240.7571L149.2801,236.8736L152.6189,239.7715L156.5599,239.1238L162.2134,241.4683L165.3577,244.9358L169.1759,245.8603L169.0086,242.3845L170.6703,239.4769L170.0916,236.7280L168.5812,235.2085L172.0995,234.4744L172.9102,233.0561L177.9891,231.2676L178.8458,227.8152L176.6032,227.4997L177.4501,223.4577L176.5315,222.4262L179.4928,222.1185L179.4985,222.1141L179.4310,221.9784L178.7247,219.0840L176.1742,216.5367L169.7649,214.6674L173.6273,212.2254L176.2673,211.0889L174.5865,209.7831L176.9984,207.2073L175.5105,205.8036L176.1659,204.9994L173.2651,198.0053L170.7518,197.3994L170.5614,195.8456L172.6757,192.2482L167.9245,189.8154L169.1627,188.4971L169.2357,182.0721L167.6436,179.6417L169.5683,176.6991L167.9570,174.4400L170.0155,170.0199L169.9862,167.8014L168.8501,167.0808L165.7604,163.3471L165.3499,161.9348L164.0193,163.3186L157.5328,163.3824L154.6204,162.0520L152.3306,164.2675L148.7283,162.5928L151.0140,159.2882L149.2177,156.8130L147.5430,157.3038L145.9306,156.0245L141.9509,155.3400L141.7462,156.4269L138.4340,154.5664L136.5848,154.2290L131.9162,154.9271L129.7028,152.5535L127.3564,151.6825L127.3389,151.7916L125.7627,151.3195L125.3809,149.8210L111.0478,140.2488L106.5708,142.5185L106.6960,143.7341L98.1339,144.3050L95.7995,145.3369L95.1581,147.7273L91.8106,151.2868L90.1083,152.4092L86.8104,148.8781L84.2043,150.1682L79.3815,149.1268L77.0995,150.8039L74.6994,151.0040L69.3013,152.8922L65.9125,153.0777L62.3484,154.9922L59.4738,161.5947L59.7128,164.3721L56.6904,163.2336L52.1790,167.4454L49.7832,170.6126L46.9668,170.3575L46.2826,173.9697L46.5579,177.0974L42.4824,179.1712L41.4845,180.2905L39.4462,184.7966L39.2028,186.5911L39.8261,190.3367L36.9922,189.2774L36.1702,192.9249L36.8601,194.0026L35.2061,197.2318L37.3789,200.6027L35.2267,203.1718L37.2543,205.0285L33.2205,205.0233L30.5550,203.9088L28.3059,199.2799L29.9845,193.8595L28.5194,191.9072L26.9075,191.6058L23.1506,187.2223L25.7723,186.9038L26.4384,185.1630L24.9497,182.5770L20.1420,182.7124L17.1698,181.5251L16.9468,174.3207L15.0680,173.1816L14.4300,170.6771L2.4797,171.6063L5.3040,173.3985L5.1674,175.8562L7.5173,180.2513L6.2076,182.8790L4.6233,183.2254L1.2746,187.6474L3.2604,188.2497L3.9600,190.2024L10.8839,192.8433L11.8255,195.8330L13.6789,196.7597L14.3086,198.8404L16.8854,201.2323L18.0150,204.6263L19.3634,206.2658L16.7904,211.8991L16.4683,216.6936L17.5084,220.0213L20.3096,221.1426L21.5739,223.2159L23.5463,223.1748L25.7543,225.7632L28.1082,227.3834L25.8180,230.9013L31.2964,231.5300L34.2078,232.7287L35.3761,236.9744L37.4703,235.8707L38.8808,236.7056L43.9377,241.9427L46.2860,242.6743L46.8698,243.7845L51.2113,244.8507L52.4425,247.9764L55.1997,246.1296L56.8785,247.8391L59.7708,249.1492L60.5148,251.7087L59.4227,254.5755L56.8001,256.9490L57.9194,259.4934L67.2753,262.2880L68.0649,262.9128L68.7578,266.4313L68.7286,266.6391Z " data-nazevkr="Karlovarský kraj" data-ob01="304343.0" data-ob11="295595.0" data-ob91="301985.0" data-vymera="331426.3402"/><path d="M127.3564,151.6825L129.7028,152.5535L131.9162,154.9271L136.5848,154.2290L138.4340,154.5664L141.7462,156.4269L141.9509,155.3400L145.9306,156.0245L147.5430,157.3038L149.2177,156.8130L151.0140,159.2882L148.7283,162.5928L152.3306,164.2675L154.6204,162.0520L157.5328,163.3824L164.0193,163.3186L165.3499,161.9348L165.7604,163.3471L168.8501,167.0808L169.9862,167.8014L170.0155,170.0199L167.9570,174.4400L169.5683,176.6991L167.6436,179.6417L169.2357,182.0721L169.1627,188.4971L167.9245,189.8154L172.6757,192.2482L170.5614,195.8456L170.7518,197.3994L173.2651,198.0053L176.1659,204.9994L175.5105,205.8036L176.9984,207.2073L174.5865,209.7831L176.2673,211.0889L173.6273,212.2254L169.7649,214.6674L176.1742,216.5367L178.7247,219.0840L179.4310,221.9784L179.4985,222.1141L179.5083,222.1419L182.2029,221.7563L184.2055,225.0433L185.6880,222.2053L187.0653,221.7095L189.6963,224.4587L189.4893,226.6856L192.7279,226.4684L194.9273,224.3231L194.9858,224.3604L195.0094,224.3264L194.9575,222.7552L197.8232,220.3783L203.2652,220.6990L204.2706,218.3430L204.3510,214.5738L205.2249,215.6362L207.6441,215.5134L207.2233,213.8896L207.1060,206.7199L208.0439,207.3518L211.0937,205.0994L211.0198,204.1734L213.9850,201.4790L215.2972,200.9982L221.5595,201.8261L226.8208,198.3235L225.8586,196.4549L228.1970,197.0106L233.7692,190.1173L235.0784,192.9508L237.5422,194.0413L241.3859,193.0664L244.4626,193.3561L246.1729,190.9131L248.3723,191.5338L253.6039,185.2002L255.4944,184.4425L256.9314,185.0270L258.3442,188.8871L262.3543,188.8416L264.2583,183.6621L268.4392,181.8453L271.1557,181.7977L273.9576,179.0502L275.9882,177.8490L275.5345,175.2694L279.8020,175.4258L281.0361,173.9232L281.1286,171.6469L280.0068,169.9849L280.4243,167.9481L283.6049,165.1952L284.8607,164.8559L291.0246,166.5438L293.7050,167.8027L299.0048,167.8561L303.3713,168.7622L309.2699,167.9545L309.4925,165.4460L311.6694,165.9707L311.8470,167.4946L314.3009,166.6583L319.1392,168.8334L322.9626,163.2413L327.2778,164.1158L327.8630,163.1711L334.0902,163.7691L336.7190,163.4164L338.0291,154.4491L336.9404,151.8907L337.8429,150.1567L336.5033,146.8104L338.2294,144.4174L339.2797,145.8257L344.1625,146.9947L343.1380,145.8354L344.7160,144.6462L344.9349,140.4495L347.7746,141.9749L349.3612,140.5354L350.2559,141.0800L352.3514,138.6418L351.2640,133.8275L349.7358,130.2364L352.3828,129.7755L351.6921,127.4468L354.0879,128.4185L354.2223,128.4586L354.3244,128.3152L352.0927,123.6734L346.7706,119.9410L346.8560,119.1865L343.5822,112.4196L342.0877,110.6472L342.1890,109.2317L340.7470,108.6770L335.6710,99.2983L336.4568,98.0765L335.4865,94.2932L335.9427,93.2445L333.0814,91.4843L333.1783,90.4125L337.3743,86.4282L336.9053,83.7993L338.0350,78.2530L342.1422,76.9027L342.8427,74.8598L343.9116,75.7593L345.6227,74.4630L343.9586,73.5067L345.6675,67.4426L348.1583,66.3268L349.9343,64.4773L348.6052,63.5111L349.8776,61.9791L350.2698,57.7050L351.3959,56.4801L353.8394,56.2042L353.6928,57.4015L358.8116,60.1924L362.2544,61.1781L365.4151,59.0218L366.5977,53.0554L366.1180,51.4961L371.4286,50.2582L373.7652,46.3475L373.7824,46.3024L376.4707,36.8287L378.7133,34.8394L378.5730,30.1393L377.4732,29.1128L368.3903,33.2308L366.5604,28.1153L368.1137,26.7102L370.2475,21.9681L370.2022,16.0900L365.8311,10.7659L361.3583,12.1863L360.8051,9.0575L356.0215,7.8850L357.2025,3.7164L355.4877,2.7154L355.1541,7.5749L351.0624,4.8013L348.5335,5.1964L344.2166,8.5908L343.2929,8.6519L339.2347,6.7358L338.9264,4.0277L335.2581,2.8446L333.6390,3.3429L331.1802,2.5320L329.0975,0.0098L326.8501,0.3753L325.1663,3.7461L322.8756,3.7310L323.6935,9.8321L321.6183,11.1544L321.6580,13.4828L320.6165,14.9285L324.7122,18.4627L328.4368,16.6474L331.1184,17.2343L330.7251,19.4886L328.5995,19.6787L327.1699,21.0988L328.4261,23.8230L336.8689,26.5969L339.6092,26.6685L340.9850,27.9163L341.7213,30.8442L339.3660,32.5976L339.6050,36.7092L334.0841,37.7024L327.7539,40.0070L325.5378,39.9289L324.1444,38.2466L321.8328,37.6400L317.3044,40.6760L316.7111,43.7448L310.8655,48.1000L302.7278,51.3659L298.2365,52.7954L292.8643,57.1916L288.2004,57.5755L287.4038,58.8152L282.4479,56.1676L280.3421,56.0580L274.1397,61.7298L272.1768,62.4463L268.4216,61.2653L267.2252,62.5787L267.4926,63.9758L265.8576,66.7795L266.5883,73.3990L263.9907,73.8688L262.0316,73.3603L261.7166,76.0752L260.2089,77.0819L255.1882,76.5836L254.1252,75.3940L249.7804,74.6973L248.7618,75.4652L246.8443,74.7914L240.2631,77.3160L239.3961,79.1588L236.2278,78.3839L233.4615,75.7981L227.4020,77.7808L226.5097,79.8652L223.4146,80.7478L217.4461,79.7270L212.4963,82.6005L214.7010,85.5762L215.2282,88.5246L210.6600,94.3092L212.4666,95.0231L211.4167,97.8212L208.4789,98.9615L203.6817,105.6002L196.1836,102.5337L194.7422,98.3065L190.4061,94.6955L189.7311,94.6175L190.1700,98.8000L187.8527,102.6825L182.8497,104.6467L182.3797,108.8505L182.6408,110.8030L178.7734,111.5596L177.2391,110.9527L175.8208,108.0628L172.4801,107.5224L169.8376,111.1337L168.0670,115.5763L167.6919,118.9430L165.5724,124.6328L163.9584,125.7044L163.5597,128.8567L161.8849,128.8228L155.4693,127.0216L154.8168,125.8047L150.2640,128.7834L146.7312,129.5695L143.3445,129.3353L140.8427,127.3381L139.6448,128.9131L137.9483,136.1217L138.4321,140.1502L135.1053,144.3005L133.0964,147.7976L129.5783,149.4160L126.3464,150.3269L127.3473,151.4556L127.3564,151.6825Z " data-nazevkr="Ústecký kraj" data-ob01="820219.0" data-ob11="808961.0" data-ob91="824461.0" data-vymera="533451.5504"/><path d="M373.7652,46.3475L371.4286,50.2582L366.1180,51.4961L366.5977,53.0554L365.4151,59.0218L362.2544,61.1781L358.8116,60.1924L353.6928,57.4015L353.8394,56.2042L351.3959,56.4801L350.2698,57.7050L349.8776,61.9791L348.6052,63.5111L349.9343,64.4773L348.1583,66.3268L345.6675,67.4426L343.9586,73.5067L345.6227,74.4630L343.9116,75.7593L342.8427,74.8598L342.1422,76.9027L338.0350,78.2530L336.9053,83.7993L337.3743,86.4282L333.1783,90.4125L333.0814,91.4843L335.9427,93.2445L335.4865,94.2932L336.4568,98.0765L335.6710,99.2983L340.7470,108.6770L342.1890,109.2317L342.0877,110.6472L343.5822,112.4196L346.8560,119.1865L346.7706,119.9410L352.0927,123.6734L354.3244,128.3152L354.2223,128.4586L354.2179,128.4648L356.3752,131.4814L357.3259,127.8611L359.7330,127.1261L361.5790,130.2477L363.7437,128.5146L367.9566,127.2109L367.4708,130.7142L368.2887,134.1378L372.4767,136.1098L373.2552,134.2078L375.1758,134.2573L375.5283,132.8633L378.1627,134.2564L378.1064,133.1786L382.4750,132.8108L384.4699,133.1124L383.9796,131.5464L388.5671,129.8700L389.5505,125.3477L393.3000,125.8441L394.1946,122.1568L393.1609,116.4334L402.5571,119.1904L404.4301,120.7102L408.7113,116.8031L407.5072,114.5450L408.2069,112.8354L414.1613,111.2629L416.4350,109.6248L414.5353,105.9301L417.7462,104.8427L417.1108,102.0343L419.8468,103.0041L419.9060,104.8172L421.9216,106.6500L424.8798,107.7742L426.2575,105.3603L427.9293,106.1288L430.6279,105.4839L432.0500,108.1724L435.5575,111.5372L435.9699,114.3784L439.3209,113.0736L441.0394,115.5790L443.8295,116.8839L444.3603,121.5809L447.9323,122.3898L451.6231,124.3192L451.6359,124.3594L451.6815,124.4017L452.3442,125.5992L454.7232,126.4093L458.1576,128.5825L462.7365,130.7363L464.8086,130.7487L465.1888,127.8571L469.3074,124.6094L469.0459,123.7273L471.9898,124.1183L475.9674,127.0105L478.6021,126.0794L480.9375,128.7557L482.9029,129.3015L484.2431,130.8305L484.7477,128.7347L486.0296,131.8706L487.8323,134.2957L492.9210,133.7457L496.5235,130.3774L495.2292,128.8190L494.5994,124.2655L498.5622,123.5182L498.7426,122.0198L501.4283,118.9784L503.3627,120.7652L503.1520,122.2351L508.8311,126.3450L510.2824,126.1308L512.8062,123.5041L514.1610,123.5479L517.6351,126.0344L523.2063,124.3494L519.1063,116.6511L516.4011,113.9448L517.2164,112.3176L514.2007,110.7821L516.1477,107.2756L516.0057,106.0672L518.4536,102.8866L513.8200,96.7920L514.7053,95.4115L512.7821,87.2705L513.3289,82.3460L512.6531,78.6989L514.5683,74.7993L514.1694,73.4975L509.4282,69.6242L508.9024,64.6570L508.6567,64.7161L505.3329,61.9826L501.4907,62.0585L499.7989,60.5956L494.6791,57.7236L492.7080,58.3600L487.8022,65.4678L484.5704,64.2082L484.1782,59.5880L485.2480,54.9563L483.6805,50.6424L481.6088,47.9662L476.0184,45.8019L470.8315,38.5771L469.3355,31.7345L469.6915,28.4579L472.7448,25.3827L473.0412,23.9499L470.5684,20.5497L470.7139,19.4017L466.9088,17.5900L465.0646,14.1551L461.4016,14.8897L458.9334,17.2251L455.8915,14.2131L455.3153,8.3716L451.2623,9.9328L449.8057,13.7727L445.4490,15.0229L439.9536,8.0953L437.7853,10.2050L435.0487,9.7311L433.5892,7.6464L428.2155,10.5012L425.2869,15.4058L427.7049,17.6548L430.8540,16.2378L433.1497,20.7519L431.6455,21.7145L432.0844,27.1586L428.4141,31.4140L429.7789,34.4172L429.0846,38.3753L430.2534,43.7745L422.3057,44.8363L421.1414,43.8521L415.2454,42.0946L414.8195,44.1049L411.8017,41.9254L409.8915,43.3501L406.0449,43.4706L404.0903,44.2212L400.4422,54.5455L398.6239,54.3233L395.5368,55.3427L394.4832,54.1156L390.6178,53.9241L389.1066,54.6276L387.0293,50.3528L380.2637,48.2744L378.5815,48.5011L373.9453,46.3578L373.7652,46.3475Z " data-nazevkr="Liberecký kraj" data-ob01="428184.0" data-ob11="432439.0" data-ob91="425120.0" data-vymera="316341.8489"/><path d="M508.9024,64.6570L509.4282,69.6242L514.1694,73.4975L514.5683,74.7993L512.6531,78.6989L513.3289,82.3460L512.7821,87.2705L514.7053,95.4115L513.8200,96.7920L518.4536,102.8866L516.0057,106.0672L516.1477,107.2756L514.2007,110.7821L517.2164,112.3176L516.4011,113.9448L519.1063,116.6511L523.2063,124.3494L517.6351,126.0344L514.1610,123.5479L512.8062,123.5041L510.2824,126.1308L508.8311,126.3450L503.1520,122.2351L503.3627,120.7652L501.4283,118.9784L498.7426,122.0198L498.5622,123.5182L494.5994,124.2655L495.2292,128.8190L496.5235,130.3774L492.9210,133.7457L487.8323,134.2957L486.0296,131.8706L484.7477,128.7347L484.2431,130.8305L482.9029,129.3015L480.9375,128.7557L478.6021,126.0794L475.9674,127.0105L471.9898,124.1183L469.0459,123.7273L469.3074,124.6094L465.1888,127.8571L464.8086,130.7487L462.7365,130.7363L458.1576,128.5825L454.7232,126.4093L452.3442,125.5992L451.6815,124.4017L451.6359,124.3594L451.5004,124.3802L449.3143,127.0361L446.6963,128.6060L449.3223,134.0065L450.6739,135.0167L449.7505,141.8264L451.4130,141.7073L453.9023,146.4706L450.1571,153.7222L451.2122,155.6522L447.4929,155.3432L445.3372,158.3072L449.1619,161.1744L447.9175,162.6229L449.9991,165.6947L452.5972,166.8246L454.8695,165.7553L457.7447,166.6755L456.7332,169.4118L459.3192,170.1170L462.0868,171.7235L460.7628,174.1335L461.4998,177.0988L464.9130,178.7404L468.6223,177.1807L470.3668,178.4539L470.8182,177.6057L475.2403,180.1854L476.9938,177.7086L478.3275,177.9348L482.2057,176.3659L482.9386,178.2222L485.7742,179.6306L485.8462,183.1154L486.5637,186.0700L484.6490,192.7882L487.6379,194.8423L488.5739,199.2789L483.2997,207.5011L485.1222,209.1431L482.2592,211.2480L486.3589,211.5536L490.5915,213.0022L494.8906,215.3991L494.4715,219.6948L494.4689,219.7021L494.4695,219.7024L496.4848,222.7989L502.1497,219.5990L505.0063,218.5684L506.5753,216.6180L510.6866,212.8538L511.0698,213.8383L514.1829,212.1695L514.1645,210.4854L515.6070,211.0426L518.0920,213.4647L525.3837,213.8165L526.8736,213.6121L531.2451,215.7232L533.7945,213.0432L537.1479,213.3861L539.1755,211.8221L539.3322,207.8807L541.4872,206.2105L543.0340,206.4736L544.4421,204.5678L547.9992,207.5155L548.8269,212.7685L550.1054,213.6895L553.0114,213.9321L554.6597,213.3603L555.7062,211.0262L560.8257,211.1280L560.8859,208.5565L565.2788,207.2172L565.2345,205.7169L570.0707,207.3240L576.2994,208.7791L577.5282,211.3739L578.8524,211.3877L579.0713,219.0774L586.8438,219.1226L589.3708,225.2115L594.5394,226.0356L596.4570,229.2792L600.5344,231.1426L603.3374,231.4171L606.2248,236.0089L608.3556,234.9847L613.0287,234.0091L617.7316,233.9113L622.1065,234.6130L626.1538,235.7361L626.1578,233.7933L624.0901,229.9135L626.3786,229.6836L630.0476,227.2133L627.4318,224.6153L628.5774,222.9658L635.3202,218.7348L635.5288,217.8120L641.0689,216.9714L640.3247,216.0992L647.0492,213.4972L647.9544,211.3837L648.0273,207.3973L651.1987,206.8657L654.2278,208.2690L655.1096,209.7952L659.3465,211.8641L663.0158,212.2176L662.9880,212.0911L663.7938,209.9664L659.7192,205.7432L660.4400,204.0108L659.2136,199.9578L659.4419,194.1754L656.7264,190.0069L654.5666,189.9001L652.2737,185.2846L648.5248,182.4899L646.3675,178.2206L640.8471,170.0861L638.6362,170.2681L636.3329,171.4683L634.9585,170.3596L632.7850,166.1330L630.7104,163.5008L631.7246,160.4275L628.6021,157.4014L627.8610,157.8927L621.6221,157.2002L619.1559,160.3821L616.9382,157.5516L616.8848,155.8533L613.9394,153.6731L612.4200,149.5297L609.0266,149.3850L608.3548,146.5296L606.7513,144.7472L606.9306,142.8622L608.9058,140.7932L611.6485,142.7221L611.4690,140.5151L614.2020,135.6602L617.8017,133.3904L621.2194,133.6886L623.3421,130.1142L623.3691,128.2350L629.4401,129.9663L631.1201,128.6869L632.7283,125.7129L636.3839,123.3050L637.4908,118.7024L637.1840,114.8426L641.3496,112.4134L642.2749,108.4298L637.8196,103.4417L634.5247,100.7625L631.2924,95.9876L629.2642,95.3012L626.0407,91.4474L624.9287,90.9241L623.2095,92.2096L619.1610,92.2963L618.6947,90.5482L615.5855,90.7895L611.9274,89.8957L609.7738,98.2592L609.3788,98.8071L603.9416,99.6105L602.5892,95.8942L597.6060,94.1505L595.4566,92.3166L592.8038,91.7384L587.3090,97.6234L585.0612,103.6381L582.6441,104.4676L581.1132,106.7316L578.7070,105.3126L575.8826,102.4445L580.6613,99.3982L577.9323,96.3013L578.0979,92.8976L575.6688,86.6607L571.8299,85.0392L567.9764,86.2461L566.5843,87.6133L563.4567,87.9510L560.4952,89.6854L557.0829,88.3878L555.5839,81.5346L552.3779,77.4826L552.6631,73.2105L550.3435,70.2609L546.6979,70.8825L544.3850,73.2902L542.4254,72.9404L539.6156,74.2445L534.0408,74.4727L531.5263,73.1755L530.5752,70.6301L521.7185,67.9597L518.0252,65.2198L513.9149,65.3118L508.9135,64.6544L508.9024,64.6570Z " data-nazevkr="Královéhradecký kraj" data-ob01="550724.0" data-ob11="547916.0" data-ob91="552809.0" data-vymera="475881.746"/><path d="M494.4689,219.7021L494.4076,219.6770L494.3268,221.4189L492.6741,221.9524L490.1135,220.7496L488.8260,223.0102L491.8506,223.8920L489.9518,226.4623L490.6674,230.4883L485.5372,231.7556L488.4262,234.3176L485.4545,234.1939L485.0540,237.7833L487.9573,240.2027L490.3570,239.9735L492.7539,240.8794L492.1082,242.4277L494.6200,242.9945L497.5786,242.5474L498.5312,244.6134L499.1055,243.3549L499.8714,246.2522L499.3789,249.0838L504.0257,252.3535L505.1303,251.8327L508.4158,254.5960L508.2544,256.9340L506.2433,257.9981L508.9323,261.5879L506.4536,265.1774L506.1791,267.9879L503.3134,268.5280L504.4070,271.4506L503.2750,276.7511L503.2748,276.7670L503.2734,276.7721L507.9036,280.0677L509.2043,281.5138L514.4752,284.5303L515.9170,286.1736L520.1487,288.7189L523.9997,287.8258L526.7908,288.9360L527.7271,286.9459L533.3858,290.8648L534.4761,289.7680L538.8601,295.4640L541.3525,294.6533L544.1736,295.8280L544.9509,295.1165L544.0705,300.2882L547.4370,299.9647L551.3805,301.5335L552.0039,303.4514L555.5345,305.1949L557.4724,304.0499L555.1223,309.3264L558.2823,312.9699L559.8265,312.7378L564.5486,315.9266L565.1076,316.7433L570.5966,313.0224L572.8219,313.1054L573.3431,309.3363L577.7711,304.6017L580.1854,309.5104L589.3749,311.5297L592.6742,317.3751L594.5921,316.2658L599.3639,316.8028L607.6058,321.0449L613.1609,322.6742L617.9724,327.2117L617.4078,328.9524L620.2132,332.0134L622.2949,331.1581L626.9904,332.9316L630.4017,336.0628L632.6639,336.7432L633.1638,338.4698L635.2611,340.8281L635.2610,340.8707L635.2649,340.8764L637.3347,342.6872L637.7611,340.8818L639.4443,339.4785L638.8175,337.7520L643.8904,337.0616L643.6594,338.9659L650.0938,336.5204L655.5516,338.4894L657.1982,338.5646L657.0698,336.7262L658.0558,334.4759L658.4435,329.8827L663.7425,330.8854L667.7984,331.0105L670.2071,329.6196L674.0215,331.4956L676.2808,330.1799L680.0865,330.5890L692.8938,337.2432L695.9620,336.6362L696.0283,336.6195L696.0528,336.6154L697.1190,330.0308L698.5428,331.3242L696.1855,327.6568L696.0263,323.7155L702.0995,317.6886L702.5042,313.7130L701.3242,312.2533L701.7365,309.2555L700.1598,307.0368L694.1563,307.4789L697.3536,302.4988L696.4186,302.1578L695.2618,296.5207L689.6502,291.2036L688.3328,285.3699L686.0014,283.6655L686.5302,277.7055L690.8375,273.6922L688.0687,269.2343L689.0094,263.3763L688.1569,260.6427L685.3488,256.1957L685.8264,252.1842L684.9594,249.7481L683.3692,248.2841L682.6888,244.9481L684.3004,244.4048L687.6100,244.9195L687.8624,246.1749L690.4744,241.5693L692.4676,239.4487L694.1886,239.2006L698.1967,234.7327L696.4363,232.8165L697.4437,231.4155L695.8345,227.9169L698.9346,225.4613L697.7183,224.4102L696.7442,219.3269L699.1919,218.6731L699.6457,215.6842L702.4181,208.3719L705.3730,202.0086L704.6948,199.3720L704.6948,199.3720L702.7162,197.2850L700.6945,198.3595L698.8890,201.4824L695.5340,203.5485L694.7030,207.6676L692.9032,209.9950L692.6805,211.8078L688.5407,214.1592L683.6845,221.3375L680.8586,222.6730L670.6337,218.5624L667.5919,214.4342L663.0261,212.2133L663.0158,212.2176L659.3465,211.8641L655.1096,209.7952L654.2278,208.2690L651.1987,206.8657L648.0273,207.3973L647.9544,211.3837L647.0492,213.4972L640.3247,216.0992L641.0689,216.9714L635.5288,217.8120L635.3202,218.7348L628.5774,222.9658L627.4318,224.6153L630.0476,227.2133L626.3786,229.6836L624.0901,229.9135L626.1578,233.7933L626.1538,235.7361L622.1065,234.6130L617.7316,233.9113L613.0287,234.0091L608.3556,234.9847L606.2248,236.0089L603.3374,231.4171L600.5344,231.1426L596.4570,229.2792L594.5394,226.0356L589.3708,225.2115L586.8438,219.1226L579.0713,219.0774L578.8524,211.3877L577.5282,211.3739L576.2994,208.7791L570.0707,207.3240L565.2345,205.7169L565.2788,207.2172L560.8859,208.5565L560.8257,211.1280L555.7062,211.0262L554.6597,213.3603L553.0114,213.9321L550.1054,213.6895L548.8269,212.7685L547.9992,207.5155L544.4421,204.5678L543.0340,206.4736L541.4872,206.2105L539.3322,207.8807L539.1755,211.8221L537.1479,213.3861L533.7945,213.0432L531.2451,215.7232L526.8736,213.6121L525.3837,213.8165L518.0920,213.4647L515.6070,211.0426L514.1645,210.4854L514.1829,212.1695L511.0698,213.8383L510.6866,212.8538L506.5753,216.6180L505.0063,218.5684L502.1497,219.5990L496.4848,222.7989L494.4695,219.7024L494.4689,219.7021Z " data-nazevkr="Pardubický kraj" data-ob01="508281.0" data-ob11="511627.0" data-ob91="508718.0" data-vymera="451889.3675"/><path d="M419.9307,347.8542L419.9201,347.8896L421.4323,352.4432L419.2747,354.0709L417.5323,353.9643L415.4440,355.5976L419.1842,358.9315L420.1303,362.6873L417.9311,364.7839L419.6047,366.3045L418.6030,369.9437L417.2043,371.6868L416.6618,374.7116L417.5750,376.1602L415.4959,379.0186L413.4758,387.2416L418.7731,390.0238L418.9815,392.6328L416.0583,396.5800L419.6287,400.6697L418.8340,401.9238L421.6436,403.1071L428.6542,410.0471L429.4769,408.8322L434.8481,405.4592L435.1919,406.5498L438.4456,409.8652L445.2456,411.1566L444.8279,415.9193L441.1683,415.4534L443.6350,416.7110L448.2038,416.2010L449.5128,418.5822L450.5377,422.0604L452.4253,422.5435L458.4346,418.9584L460.5467,420.9442L462.2026,420.8221L466.4151,422.0812L471.1842,424.6742L477.1968,422.6069L480.3187,422.8561L480.8407,427.1268L481.4068,427.8413L479.8573,434.2007L482.1035,437.6121L485.8435,439.8188L486.2211,441.2123L489.7441,442.3857L493.0286,444.3255L493.4241,442.8388L504.1061,445.2101L504.8080,444.0613L510.0913,441.8292L513.4708,443.0454L512.5764,445.3528L516.0077,448.2831L515.7959,449.9318L518.1179,454.8403L514.8339,455.3719L514.2400,456.0992L511.4647,455.1036L511.7283,458.2783L510.4484,462.4966L507.7472,463.2179L507.8409,465.8761L504.3197,470.3300L502.4960,470.9410L501.9428,473.0161L504.2435,473.3407L505.1772,472.4093L506.7788,476.8972L508.2938,477.8887L514.6114,479.6259L514.4820,481.6073L516.4773,483.9645L516.4873,483.9646L516.4982,483.9639L516.6702,482.1284L521.6308,483.1693L521.9154,484.8905L524.7659,485.8837L527.7978,482.4658L527.4425,479.9843L530.8589,480.7299L531.8194,479.5702L534.1852,479.6370L535.7265,480.6870L538.1025,483.6569L539.2185,480.5197L541.7656,476.3456L544.5250,476.4142L548.6083,473.1032L547.4649,472.6949L550.6846,469.5931L551.4677,470.2719L555.4697,468.7548L558.0225,470.3244L560.7565,464.6505L560.3732,463.4321L563.4701,464.0690L565.3204,465.4472L568.5553,461.1313L573.1441,462.5436L573.1537,463.2032L585.5334,462.5974L587.3182,464.1045L588.6010,463.2736L590.3777,464.6845L592.1500,463.2984L594.5670,463.4802L599.0659,461.2275L596.5569,458.9083L597.7019,457.2720L601.6510,455.5175L604.2574,456.2494L604.6633,455.5154L608.5518,455.9497L609.3950,451.3172L614.0302,449.0783L615.0386,447.9366L609.9035,441.7093L613.7080,439.4387L610.9267,435.3674L611.7701,433.3095L617.2460,432.0858L616.8537,428.3557L615.2442,424.8544L611.9259,424.0210L612.2765,421.0221L613.1758,419.7097L618.9485,414.6097L619.8112,413.3811L615.8346,410.4139L615.0948,408.9156L618.0606,404.9192L618.8814,404.7635L620.4031,401.6881L618.6720,399.6486L617.2130,400.2275L612.8122,398.5085L614.9977,396.1482L613.7665,394.8001L609.8715,392.8774L611.4864,389.5492L610.8162,388.6655L612.1264,386.6200L612.1832,383.2869L613.3977,381.1681L615.6500,380.3818L615.2216,379.4884L616.7571,375.4173L618.2090,374.6210L620.6166,375.5613L624.8840,375.1529L626.5372,373.1786L622.7442,369.3165L623.8313,366.9106L629.3229,365.9791L629.3223,370.5816L631.2334,369.7931L631.8748,370.6639L633.7643,368.9969L633.2615,366.8376L634.9959,365.8932L631.0880,362.0497L629.9583,359.4489L631.2450,358.7510L632.4163,360.9967L634.1670,360.7062L638.4754,354.8718L638.7063,351.5204L633.1512,348.7067L632.3528,347.1242L635.2591,340.8715L635.2610,340.8707L635.2611,340.8281L633.1638,338.4698L632.6639,336.7432L630.4017,336.0628L626.9904,332.9316L622.2949,331.1581L620.2132,332.0134L617.4078,328.9524L617.9724,327.2117L613.1609,322.6742L607.6058,321.0449L599.3639,316.8028L594.5921,316.2658L592.6742,317.3751L589.3749,311.5297L580.1854,309.5104L577.7711,304.6017L573.3431,309.3363L572.8219,313.1054L570.5966,313.0224L565.1076,316.7433L564.5486,315.9266L559.8265,312.7378L558.2823,312.9699L555.1223,309.3264L557.4724,304.0499L555.5345,305.1949L552.0039,303.4514L551.3805,301.5335L547.4370,299.9647L544.0705,300.2882L544.9509,295.1165L544.1736,295.8280L541.3525,294.6533L538.8601,295.4640L534.4761,289.7680L533.3858,290.8648L527.7271,286.9459L526.7908,288.9360L523.9997,287.8258L520.1487,288.7189L515.9170,286.1736L514.4752,284.5303L509.2043,281.5138L507.9036,280.0677L503.2734,276.7721L503.2748,276.7670L503.2663,276.7510L502.4710,278.9434L499.7429,279.1303L499.8315,280.9788L495.9880,280.5699L492.2990,283.2793L491.1822,286.1782L493.7044,289.2599L492.1462,292.5972L486.9724,290.7357L484.6162,293.3630L483.7714,295.9060L483.0809,295.4765L481.0925,297.7156L479.2276,296.4432L471.9315,298.7461L470.5552,300.9086L468.2201,301.5831L466.1607,299.4127L463.3586,300.8512L463.5501,303.9142L458.0825,310.9365L456.7959,311.2176L456.2354,316.1718L457.4309,321.0195L459.2541,320.1887L460.2805,321.7890L464.5635,321.4742L466.9044,326.9971L465.9587,327.9904L466.0315,330.8379L462.6123,333.5160L456.2408,334.2185L455.5344,333.2991L454.5899,337.7558L452.5416,338.2763L452.5601,337.2452L446.4914,334.6204L442.2070,336.5958L437.1704,336.7489L435.8743,336.2137L433.0920,337.0372L429.5812,334.5224L425.7452,337.3421L428.4187,340.5478L426.2383,341.1824L421.0491,340.9271L421.3153,344.7289L422.0575,346.1799L419.9070,347.8121L419.9307,347.8542Z " data-nazevkr="Kraj Vysočina" data-ob01="512143.0" data-ob11="505565.0" data-ob91="513740.0" data-vymera="679570.5546"/><path d="M635.2610,340.8707L635.2591,340.8715L632.3528,347.1242L633.1512,348.7067L638.7063,351.5204L638.4754,354.8718L634.1670,360.7062L632.4163,360.9967L631.2450,358.7510L629.9583,359.4489L631.0880,362.0497L634.9959,365.8932L633.2615,366.8376L633.7643,368.9969L631.8748,370.6639L631.2334,369.7931L629.3223,370.5816L629.3229,365.9791L623.8313,366.9106L622.7442,369.3165L626.5372,373.1786L624.8840,375.1529L620.6166,375.5613L618.2090,374.6210L616.7571,375.4173L615.2216,379.4884L615.6500,380.3818L613.3977,381.1681L612.1832,383.2869L612.1264,386.6200L610.8162,388.6655L611.4864,389.5492L609.8715,392.8774L613.7665,394.8001L614.9977,396.1482L612.8122,398.5085L617.2130,400.2275L618.6720,399.6486L620.4031,401.6881L618.8814,404.7635L618.0606,404.9192L615.0948,408.9156L615.8346,410.4139L619.8112,413.3811L618.9485,414.6097L613.1758,419.7097L612.2765,421.0221L611.9259,424.0210L615.2442,424.8544L616.8537,428.3557L617.2460,432.0858L611.7701,433.3095L610.9267,435.3674L613.7080,439.4387L609.9035,441.7093L615.0386,447.9366L614.0302,449.0783L609.3950,451.3172L608.5518,455.9497L604.6633,455.5154L604.2574,456.2494L601.6510,455.5175L597.7019,457.2720L596.5569,458.9083L599.0659,461.2275L594.5670,463.4802L592.1500,463.2984L590.3777,464.6845L588.6010,463.2736L587.3182,464.1045L585.5334,462.5974L573.1537,463.2032L573.1441,462.5436L568.5553,461.1313L565.3204,465.4472L563.4701,464.0690L560.3732,463.4321L560.7565,464.6505L558.0225,470.3244L555.4697,468.7548L551.4677,470.2719L550.6846,469.5931L547.4649,472.6949L548.6083,473.1032L544.5250,476.4142L541.7656,476.3456L539.2185,480.5197L538.1025,483.6569L535.7265,480.6870L534.1852,479.6370L531.8194,479.5702L530.8589,480.7299L527.4425,479.9843L527.7978,482.4658L524.7659,485.8837L521.9154,484.8905L521.6308,483.1693L516.6702,482.1284L516.4982,483.9639L516.4873,483.9646L516.5370,484.0022L512.2183,489.4850L510.9762,489.3122L509.9517,492.7680L510.1087,492.8198L514.5074,495.0174L520.5387,495.0305L522.9147,497.8616L524.8797,497.7754L531.1930,504.1409L533.2810,503.7166L541.0575,505.2306L545.0289,500.1714L551.3987,500.7180L553.5067,499.6292L555.4484,502.2686L554.0648,503.0184L557.3392,505.1724L558.7691,504.8277L560.1697,507.1983L563.6488,508.9477L567.2374,509.3613L566.2807,511.5016L568.3666,512.6833L569.4003,510.6774L570.5396,516.3925L578.8864,522.5794L581.3264,523.6599L587.0097,527.0761L594.7159,528.5000L596.3221,529.2774L599.6943,529.2347L600.0946,528.4637L605.3100,529.6164L616.3753,530.7716L617.0087,530.0481L621.5355,530.4106L623.6067,531.8983L626.5140,532.1093L629.0165,529.8640L629.2679,531.7690L631.8108,532.8709L637.1608,530.1002L638.2830,527.7488L641.9756,523.9707L642.0513,521.2280L643.5014,518.9625L643.5050,517.2656L646.4053,515.2486L647.9832,516.4625L653.6730,516.6451L654.0930,517.2306L657.0558,513.8757L660.8494,518.4102L662.0616,518.3757L664.9424,520.6207L670.4330,521.2651L671.2534,520.0771L675.3949,521.3118L677.7868,527.5671L676.8460,529.6867L678.9956,532.7482L679.7477,531.9524L684.2172,530.7666L686.0919,532.7513L687.0748,532.2475L691.8121,536.6128L695.4161,537.9527L699.4273,536.8172L700.4748,535.5972L702.8376,536.5926L705.6428,536.4954L707.1609,534.0922L711.8409,537.8030L711.4199,538.3099L711.8305,543.6593L713.6484,545.9366L712.8711,549.5726L713.3188,556.7921L715.9148,557.5626L718.0480,556.6316L720.4098,551.4726L720.4144,545.9220L724.5923,537.3188L726.1731,535.8605L729.1268,529.0551L734.7018,521.9916L737.1240,520.8515L740.4054,515.5926L740.4346,511.6082L740.9790,510.3409L750.4353,504.0052L754.7108,499.4143L757.3453,501.1543L761.5209,502.1939L762.2384,502.9323L765.5724,503.2688L769.4294,506.7961L772.3592,507.0339L777.9243,513.5682L780.8349,512.7850L783.7271,513.6420L789.2505,507.8396L795.2699,507.6203L800.9751,512.6152L805.4278,513.2751L806.6945,511.7096L812.1028,510.9481L813.7063,507.7568L816.5000,507.4185L816.4606,506.6905L820.3314,504.7717L820.3496,504.7753L818.5799,501.2582L819.1802,499.3755L817.7534,499.8808L813.6020,492.1674L811.0687,492.0559L807.7503,489.5100L805.9311,490.6885L804.2897,489.3132L806.0627,485.4449L805.4164,483.6077L801.4132,481.9418L800.0574,482.6131L798.5217,479.6128L798.0448,480.9623L795.4173,481.7391L794.1378,480.7497L789.3497,482.9824L783.0072,476.2394L779.6941,477.3078L776.8040,476.7387L777.8783,474.5385L778.3130,470.8497L776.7260,470.6810L774.3949,468.7148L771.1738,469.3467L770.7291,468.2153L764.4958,465.2040L762.0721,464.9126L761.0743,463.4254L757.9194,464.7338L759.1001,457.4599L756.9843,454.6883L756.2773,451.2617L752.0704,452.9173L744.7796,454.9288L741.1173,454.6659L743.5122,448.7620L744.7131,449.3776L746.8395,442.1538L752.4968,441.0267L753.0202,438.1039L754.7935,432.5221L754.3787,431.0241L751.5542,433.1282L750.0100,432.2448L746.6480,432.6946L748.4883,430.2173L747.1626,426.0228L744.9763,423.6227L746.6708,420.1209L744.3594,416.0219L748.3825,410.0219L748.5017,410.0321L748.5037,410.0320L744.9904,400.9348L744.8671,398.4183L739.0889,394.8121L735.9487,394.5725L733.9039,392.4955L731.7084,392.1805L730.9896,391.1285L732.2214,389.7611L731.7535,388.1682L733.7269,383.4683L732.8109,380.2117L730.8918,382.1171L731.2395,384.3169L728.5119,382.4732L726.5103,377.2054L723.8740,376.7588L723.9500,374.1482L722.1413,368.6894L718.8181,364.5256L717.1534,361.0256L712.3555,359.0984L708.1104,361.3685L705.7434,363.7802L711.4487,372.3082L710.6609,376.1966L708.9259,378.6301L709.0936,381.0632L707.4451,381.8217L704.2303,386.0092L700.9350,383.8048L699.9887,382.4537L694.8617,379.1687L695.2720,376.6445L698.8566,374.3979L699.5411,372.9283L696.2701,369.7616L695.0774,367.6417L695.0858,364.7130L693.7093,358.9786L695.3826,356.3816L695.6802,353.5558L697.1403,351.9984L699.8626,352.2747L697.2444,350.7183L696.4714,351.5451L688.5258,349.1452L686.3095,349.3808L688.4855,345.4584L686.9315,342.0373L687.4553,340.5251L690.3168,340.4004L693.0216,342.5238L695.5038,341.0096L693.9169,339.2808L696.0280,336.6233L696.0283,336.6195L695.9620,336.6362L692.8938,337.2432L680.0865,330.5890L676.2808,330.1799L674.0215,331.4956L670.2071,329.6196L667.7984,331.0105L663.7425,330.8854L658.4435,329.8827L658.0558,334.4759L657.0698,336.7262L657.1982,338.5646L655.5516,338.4894L650.0938,336.5204L643.6594,338.9659L643.8904,337.0616L638.8175,337.7520L639.4443,339.4785L637.7611,340.8818L637.3347,342.6872L635.2649,340.8764L635.2610,340.8707Z " data-nazevkr="Jihomoravský kraj" data-ob01="1134786.0" data-ob11="1163508.0" data-ob91="1144160.0" data-vymera="719489.4613"/><path d="M704.6948,199.3720L705.3730,202.0086L702.4181,208.3719L699.6457,215.6842L699.1919,218.6731L696.7442,219.3269L697.7183,224.4102L698.9346,225.4613L695.8345,227.9169L697.4437,231.4155L696.4363,232.8165L698.1967,234.7327L694.1886,239.2006L692.4676,239.4487L690.4744,241.5693L687.8624,246.1749L687.6100,244.9195L684.3004,244.4048L682.6888,244.9481L683.3692,248.2841L684.9594,249.7481L685.8264,252.1842L685.3488,256.1957L688.1569,260.6427L689.0094,263.3763L688.0687,269.2343L690.8375,273.6922L686.5302,277.7055L686.0014,283.6655L688.3328,285.3699L689.6502,291.2036L695.2618,296.5207L696.4186,302.1578L697.3536,302.4988L694.1563,307.4789L700.1598,307.0368L701.7365,309.2555L701.3242,312.2533L702.5042,313.7130L702.0995,317.6886L696.0263,323.7155L696.1855,327.6568L698.5428,331.3242L697.1190,330.0308L696.0528,336.6154L696.0283,336.6195L696.0280,336.6233L693.9169,339.2808L695.5038,341.0096L693.0216,342.5238L690.3168,340.4004L687.4553,340.5251L686.9315,342.0373L688.4855,345.4584L686.3095,349.3808L688.5258,349.1452L696.4714,351.5451L697.2444,350.7183L699.8626,352.2747L697.1403,351.9984L695.6802,353.5558L695.3826,356.3816L693.7093,358.9786L695.0858,364.7130L695.0774,367.6417L696.2701,369.7616L699.5411,372.9283L698.8566,374.3979L695.2720,376.6445L694.8617,379.1687L699.9887,382.4537L700.9350,383.8048L704.2303,386.0092L707.4451,381.8217L709.0936,381.0632L708.9259,378.6301L710.6609,376.1966L711.4487,372.3082L705.7434,363.7802L708.1104,361.3685L712.3555,359.0984L717.1534,361.0256L718.8181,364.5256L722.1413,368.6894L723.9500,374.1482L723.8740,376.7588L726.5103,377.2054L728.5119,382.4732L731.2395,384.3169L730.8918,382.1171L732.8109,380.2117L733.7269,383.4683L731.7535,388.1682L732.2214,389.7611L730.9896,391.1285L731.7084,392.1805L733.9039,392.4955L735.9487,394.5725L739.0889,394.8121L744.8671,398.4183L744.9904,400.9348L748.5037,410.0320L748.5017,410.0321L748.4594,410.1948L750.9752,411.7662L751.5732,407.1418L754.5692,406.0417L756.2389,406.9869L758.8490,404.8338L760.9577,405.5003L762.3949,404.4046L765.5773,405.5136L767.3038,404.6959L774.2514,396.9060L774.7723,395.2863L777.5321,394.7814L774.2288,386.9371L774.1030,385.5755L777.3982,380.3550L779.2120,379.5520L781.7702,380.5972L781.0271,386.1378L785.0541,385.0467L789.0442,386.3244L793.9762,389.1192L794.6960,391.6093L800.3511,386.3474L805.2382,380.6296L812.1900,380.8180L816.6193,382.3559L820.8286,378.3316L817.1034,371.6194L819.8306,370.4350L821.9428,372.5710L823.6116,369.3785L826.5729,367.7577L829.7435,372.0027L832.5640,373.5229L837.4212,372.6238L839.1036,373.3229L839.6426,370.7086L841.9545,366.1524L842.9170,365.5259L840.9575,361.7254L844.5982,360.5723L844.4661,359.2805L848.6458,358.1682L848.8521,353.8358L855.8837,356.9959L857.7498,356.5141L857.5856,355.1263L860.1314,350.4246L860.1332,350.4179L860.1409,350.3885L854.5418,344.9213L851.4147,347.9152L850.9789,345.8294L849.2928,344.5758L850.5542,343.1649L852.3703,342.9735L848.2039,334.8326L845.8892,333.0445L845.1265,331.3466L840.8218,328.2662L839.7975,328.8988L837.9330,325.6557L838.8957,324.5205L834.5275,318.7884L831.8265,322.0007L826.0619,317.8787L826.3296,315.7582L825.9971,310.2180L827.1706,308.7336L827.5434,304.6750L826.7622,301.4394L824.6330,298.2692L822.5238,300.0444L817.5380,301.2194L815.4458,302.2213L809.5243,300.4262L808.5372,300.5768L806.7138,298.1819L805.0252,297.2337L802.8925,297.4412L798.5429,289.1402L799.5324,287.0850L796.6854,285.2173L795.7733,281.9167L796.9939,282.1116L796.7403,278.8327L794.5435,276.8706L794.8882,273.8730L792.9134,274.4720L791.3502,273.7796L790.0010,275.4312L790.9946,275.8680L792.1279,280.1730L793.3027,281.2071L789.5092,285.3313L788.7920,282.7544L785.1583,286.1018L786.1069,287.3459L784.0117,288.3430L782.8238,287.7437L782.0125,292.7628L778.8011,289.1136L777.5988,286.9983L781.1780,279.6476L777.4344,276.3160L773.3019,278.3120L771.7454,277.7725L769.6020,280.1003L766.9569,282.0214L759.0919,285.2386L755.7219,284.6976L757.1746,278.2536L755.9282,278.3116L752.2376,280.5925L751.0106,279.1682L749.8091,275.7586L749.0771,275.4788L746.7872,271.8337L749.9256,267.6447L748.8187,265.0438L751.8074,260.2599L752.9666,260.2706L754.1345,257.3949L753.5155,253.3663L747.9667,248.8672L750.2086,247.5926L749.7391,244.0958L755.6401,235.1547L759.4065,229.9168L757.4267,221.4737L760.9134,218.5884L761.7008,217.1582L760.4294,212.0597L766.3282,206.6002L766.9388,205.1931L768.2826,205.9108L774.8225,202.5150L776.3127,201.3066L776.9740,199.4101L781.0441,193.9050L786.5527,196.8616L787.8624,192.2813L787.5937,189.5497L788.3038,186.4808L788.2885,186.4038L786.6913,181.2487L785.3185,181.7850L782.3108,179.8880L778.9291,180.0472L778.2813,184.1619L776.4595,184.1877L774.8375,179.6594L776.2850,178.8053L775.8067,177.5254L777.0664,174.1897L773.2764,169.6464L771.1860,171.0546L768.7634,171.4730L765.3450,170.8639L762.1514,168.9195L758.3041,165.6492L754.5978,161.1139L754.9833,156.0000L748.8331,156.6511L748.2503,157.3117L741.8942,154.1609L740.1874,151.3838L732.6808,151.1798L728.8297,148.5716L726.1717,147.5396L721.4000,148.5625L710.9871,141.5557L706.5811,145.2358L706.6555,146.0988L704.2920,150.8440L711.8025,155.3261L712.9667,159.6315L712.9755,161.9966L715.5927,165.9554L715.2448,168.7916L719.3284,172.6134L720.1371,172.2421L725.4783,176.7566L726.2617,176.9906L727.8882,180.9213L725.8806,187.0780L729.0246,191.9397L727.1946,194.4245L724.7161,195.3079L720.7510,189.0915L719.4437,190.1512L719.9068,191.9598L716.7848,193.6635L710.0434,193.7013L708.2590,195.5013L707.7020,198.9196L704.7014,199.3747L704.6948,199.3720Z " data-nazevkr="Olomoucký kraj" data-ob01="643817.0" data-ob11="628427.0" data-ob91="647341.0" data-vymera="526657.5665"/><path d="M788.3038,186.4808L787.5937,189.5497L787.8624,192.2813L786.5527,196.8616L781.0441,193.9050L776.9740,199.4101L776.3127,201.3066L774.8225,202.5150L768.2826,205.9108L766.9388,205.1931L766.3282,206.6002L760.4294,212.0597L761.7008,217.1582L760.9134,218.5884L757.4267,221.4737L759.4065,229.9168L755.6401,235.1547L749.7391,244.0958L750.2086,247.5926L747.9667,248.8672L753.5155,253.3663L754.1345,257.3949L752.9666,260.2706L751.8074,260.2599L748.8187,265.0438L749.9256,267.6447L746.7872,271.8337L749.0771,275.4788L749.8091,275.7586L751.0106,279.1682L752.2376,280.5925L755.9282,278.3116L757.1746,278.2536L755.7219,284.6976L759.0919,285.2386L766.9569,282.0214L769.6020,280.1003L771.7454,277.7725L773.3019,278.3120L777.4344,276.3160L781.1780,279.6476L777.5988,286.9983L778.8011,289.1136L782.0125,292.7628L782.8238,287.7437L784.0117,288.3430L786.1069,287.3459L785.1583,286.1018L788.7920,282.7544L789.5092,285.3313L793.3027,281.2071L792.1279,280.1730L790.9946,275.8680L790.0010,275.4312L791.3502,273.7796L792.9134,274.4720L794.8882,273.8730L794.5435,276.8706L796.7403,278.8327L796.9939,282.1116L795.7733,281.9167L796.6854,285.2173L799.5324,287.0850L798.5429,289.1402L802.8925,297.4412L805.0252,297.2337L806.7138,298.1819L808.5372,300.5768L809.5243,300.4262L815.4458,302.2213L817.5380,301.2194L822.5238,300.0444L824.6330,298.2692L826.7622,301.4394L827.5434,304.6750L827.1706,308.7336L825.9971,310.2180L826.3296,315.7582L826.0619,317.8787L831.8265,322.0007L834.5275,318.7884L838.8957,324.5205L837.9330,325.6557L839.7975,328.8988L840.8218,328.2662L845.1265,331.3466L845.8892,333.0445L848.2039,334.8326L852.3703,342.9735L850.5542,343.1649L849.2928,344.5758L850.9789,345.8294L851.4147,347.9152L854.5418,344.9213L860.1409,350.3885L860.1332,350.4179L860.1399,350.4196L865.0777,350.0629L870.6543,353.0600L871.2740,355.4255L872.8958,357.9616L874.0272,358.0723L877.1514,356.4526L884.7577,354.8767L888.5920,355.2033L889.8833,354.6407L892.5877,356.9427L896.8140,355.4233L900.6743,360.5470L902.7043,361.2814L904.2661,360.7090L908.8178,362.6400L911.8910,360.7006L916.8265,361.3851L917.7278,367.1134L920.0355,370.3139L924.2892,371.4914L927.2207,376.1549L926.4563,380.1429L931.9399,382.5271L932.0452,382.4734L933.0430,381.9734L936.2588,383.3984L942.8770,379.1308L944.7271,374.2228L946.2848,373.6580L949.9016,368.8967L953.2209,366.3882L951.3498,362.9119L952.7200,359.4161L956.3400,357.3467L960.8295,357.1543L961.4146,359.7551L963.5148,360.2143L967.1402,358.9139L977.3005,358.5568L980.9474,361.3220L982.9715,361.3199L985.4856,360.0490L987.3223,357.9591L991.5958,355.6283L996.2053,355.7022L995.8925,353.7280L997.8614,351.1765L999.1129,348.2201L995.8786,344.7497L995.5449,341.5754L996.1596,337.5954L995.2191,337.5131L993.8219,334.7143L992.9305,329.1617L991.5505,323.9980L991.8420,319.6934L987.7988,317.0208L983.1941,318.8505L981.7712,318.9573L978.1650,317.3416L976.6123,312.5680L974.7130,312.0781L970.9611,312.7967L966.2431,310.1711L964.6440,308.3243L964.6826,302.0790L962.7777,300.6358L962.4559,297.5296L956.6690,282.6203L959.1318,280.5472L958.5722,278.7613L961.4731,277.6979L961.2589,275.9724L958.3544,275.5029L956.6857,273.3837L956.5263,271.4010L957.9614,266.6120L957.2859,264.9113L952.3553,261.8431L951.0755,267.8477L943.7279,266.0668L937.8337,262.4136L935.8898,259.1374L931.8421,259.6602L927.1050,259.4707L924.9935,257.8197L922.1395,257.3218L919.3135,264.2915L914.8151,260.5100L913.8299,258.8265L913.7724,255.0810L913.1633,253.0713L907.3563,251.6159L905.0939,252.3701L902.3258,245.6505L897.9470,244.8931L896.2052,248.6223L895.1015,249.0035L892.3476,245.9265L889.8725,246.2707L888.2626,245.0915L886.3575,242.0734L884.9413,237.1934L885.5924,234.8314L883.9591,234.4928L881.5158,231.3714L879.2083,230.5893L875.4686,230.9950L873.1479,232.9437L873.0351,235.9344L873.7144,237.7780L876.6260,236.0685L879.3775,237.8042L878.4854,241.8886L875.1889,242.5539L871.3468,241.5095L870.1848,243.4898L865.4507,244.0279L860.4026,250.0118L856.4383,249.5569L853.0154,251.2721L851.8999,249.3643L848.3156,246.6914L846.8335,246.2963L848.3521,244.1292L846.8793,242.3542L842.2175,241.6768L838.9626,238.7753L838.3255,233.6519L836.5992,231.1882L835.9024,227.9035L832.8068,224.8308L832.7230,222.6409L828.9262,218.6749L825.6455,218.1959L824.7254,221.2902L822.4921,219.9659L820.2680,217.7297L819.3884,214.9739L817.9873,214.3596L812.3487,208.1836L813.5719,206.0672L817.1959,206.0613L818.0197,205.0465L828.4878,202.5123L831.7414,197.4552L834.4949,198.4413L836.7916,197.4577L836.8061,192.9210L837.5479,190.4332L832.5959,186.5021L831.8932,182.8209L835.8469,176.0179L832.8022,175.2082L831.4868,171.8207L827.0918,169.6768L826.2758,174.6715L824.8738,177.1189L819.8517,181.3616L816.8689,182.9439L813.2346,182.7256L812.1241,180.8351L808.6301,182.2099L798.1297,181.7135L793.3949,183.4707L792.2212,182.9137L792.0172,185.8582L788.3159,186.4787L788.3038,186.4808Z " data-nazevkr="Moravskoslezský kraj" data-ob01="1265019.0" data-ob11="1205834.0" data-ob91="1278726.0" data-vymera="542710.555"/><path d="M860.1332,350.4179L860.1314,350.4246L857.5856,355.1263L857.7498,356.5141L855.8837,356.9959L848.8521,353.8358L848.6458,358.1682L844.4661,359.2805L844.5982,360.5723L840.9575,361.7254L842.9170,365.5259L841.9545,366.1524L839.6426,370.7086L839.1036,373.3229L837.4212,372.6238L832.5640,373.5229L829.7435,372.0027L826.5729,367.7577L823.6116,369.3785L821.9428,372.5710L819.8306,370.4350L817.1034,371.6194L820.8286,378.3316L816.6193,382.3559L812.1900,380.8180L805.2382,380.6296L800.3511,386.3474L794.6960,391.6093L793.9762,389.1192L789.0442,386.3244L785.0541,385.0467L781.0271,386.1378L781.7702,380.5972L779.2120,379.5520L777.3982,380.3550L774.1030,385.5755L774.2288,386.9371L777.5321,394.7814L774.7723,395.2863L774.2514,396.9060L767.3038,404.6959L765.5773,405.5136L762.3949,404.4046L760.9577,405.5003L758.8490,404.8338L756.2389,406.9869L754.5692,406.0417L751.5732,407.1418L750.9752,411.7662L748.4594,410.1948L748.5017,410.0321L748.3825,410.0219L744.3594,416.0219L746.6708,420.1209L744.9763,423.6227L747.1626,426.0228L748.4883,430.2173L746.6480,432.6946L750.0100,432.2448L751.5542,433.1282L754.3787,431.0241L754.7935,432.5221L753.0202,438.1039L752.4968,441.0267L746.8395,442.1538L744.7131,449.3776L743.5122,448.7620L741.1173,454.6659L744.7796,454.9288L752.0704,452.9173L756.2773,451.2617L756.9843,454.6883L759.1001,457.4599L757.9194,464.7338L761.0743,463.4254L762.0721,464.9126L764.4958,465.2040L770.7291,468.2153L771.1738,469.3467L774.3949,468.7148L776.7260,470.6810L778.3130,470.8497L777.8783,474.5385L776.8040,476.7387L779.6941,477.3078L783.0072,476.2394L789.3497,482.9824L794.1378,480.7497L795.4173,481.7391L798.0448,480.9623L798.5217,479.6128L800.0574,482.6131L801.4132,481.9418L805.4164,483.6077L806.0627,485.4449L804.2897,489.3132L805.9311,490.6885L807.7503,489.5100L811.0687,492.0559L813.6020,492.1674L817.7534,499.8808L819.1802,499.3755L818.5799,501.2582L820.3496,504.7753L820.3774,504.7808L824.1662,504.3081L830.1585,501.9112L832.9245,499.2121L840.3808,490.4480L840.2869,488.8444L849.4285,488.5915L853.0673,489.4457L855.6352,488.0199L856.0216,484.6237L857.8553,480.9628L857.6038,478.9794L859.7115,473.1116L861.2413,467.5708L862.8292,466.7572L867.3170,466.6102L871.7014,465.8833L880.3181,465.2046L886.4842,458.7338L886.7412,456.8025L889.3363,452.0339L888.2249,441.7362L889.7217,438.0378L892.5590,435.7756L891.7162,430.1944L894.4360,425.8604L894.4368,420.3490L893.7055,420.3963L894.8923,415.2085L899.5812,411.2363L899.7154,408.9717L903.6718,405.9140L907.7848,405.5115L913.4273,403.6789L915.6842,403.4470L916.9859,402.0997L922.0419,400.0657L926.6257,398.6615L931.4489,393.1578L931.1309,391.5639L933.6955,389.1290L931.9754,382.7842L931.9399,382.5271L926.4563,380.1429L927.2207,376.1549L924.2892,371.4914L920.0355,370.3139L917.7278,367.1134L916.8265,361.3851L911.8910,360.7006L908.8178,362.6400L904.2661,360.7090L902.7043,361.2814L900.6743,360.5470L896.8140,355.4233L892.5877,356.9427L889.8833,354.6407L888.5920,355.2033L884.7577,354.8767L877.1514,356.4526L874.0272,358.0723L872.8958,357.9616L871.2740,355.4255L870.6543,353.0600L865.0777,350.0629L860.1399,350.4196L860.1332,350.4179Z " data-nazevkr="Zlínský kraj" data-ob01="595010.0" data-ob11="579944.0" data-ob91="596903.0" data-vymera="396311.5954"/></g></svg>